<?xml version="1.0" encoding="iso-8859-1"?>
<!-- Generator: Adobe Illustrator 19.0.0, SVG Export Plug-In . SVG Version: 6.00 Build 0)  -->
<svg version="1.1" id="Capa_1" xmlns="http://www.w3.org/2000/svg" xmlns:xlink="http://www.w3.org/1999/xlink" x="0px" y="0px"
	 viewBox="0 0 426.667 426.667" style="enable-background:new 0 0 426.667 426.667;" xml:space="preserve">
<g>
	<g>
		<path d="M423.542,344.034L292.385,212.878l3.125-3.125c2.531-2.531,3.625-6.177,2.906-9.688c-0.719-3.51-3.156-6.427-6.49-7.76
			l-15.408-6.165l14.605-14.605c11.573-11.573,18.208-27.594,18.208-43.958s-6.635-32.385-18.208-43.958l-65.833-65.833
			c-23.146-23.146-64.771-23.146-87.917,0L18.208,136.951C6.635,148.523,0,164.544,0,180.909c0,16.365,6.635,32.385,18.208,43.958
			l65.833,65.833c11.573,11.573,27.594,18.208,43.958,18.208c16.365,0,32.385-6.635,43.958-18.208l14.605-14.605l6.165,15.408
			c1.333,3.333,4.25,5.771,7.76,6.49c3.563,0.688,7.146-0.375,9.688-2.906l3.125-3.125l56.49,56.49c2,2,4.708,3.125,7.542,3.125H288
			c0,5.896,4.771,10.667,10.667,10.667H320v21.333c0,5.896,4.771,10.667,10.667,10.667v10.667c0,2.833,1.125,5.542,3.125,7.542
			l10.667,10.667c2,2,4.708,3.125,7.542,3.125h64c5.896,0,10.667-4.771,10.667-10.667v-64
			C426.667,348.742,425.542,346.034,423.542,344.034z M204.875,129.784l-74.667,74.667c-6.49,6.49-15.021,9.74-23.542,9.74
			c-8.521,0-17.052-3.25-23.542-9.74c-12.979-12.979-12.979-34.104,0-47.083l74.667-74.667c12.979-12.979,34.104-12.979,47.083,0
			C217.854,95.68,217.854,116.805,204.875,129.784z"/>
	</g>
</g>
<g>
</g>
<g>
</g>
<g>
</g>
<g>
</g>
<g>
</g>
<g>
</g>
<g>
</g>
<g>
</g>
<g>
</g>
<g>
</g>
<g>
</g>
<g>
</g>
<g>
</g>
<g>
</g>
<g>
</g>
</svg>
